<svg width="718" height="308" fill="none" xmlns="http://www.w3.org/2000/svg"><path d="M717.135 263.616L710.257 269.697C707.842 266.33 705.383 264.646 702.88 264.646C701.661 264.646 700.664 264.978 699.889 265.643C699.114 266.285 698.726 267.016 698.726 267.836C698.726 268.656 699.003 269.431 699.557 270.162C700.31 271.137 702.581 273.23 706.369 276.442C709.913 279.411 712.062 281.283 712.815 282.058C714.698 283.964 716.027 285.791 716.803 287.541C717.6 289.269 717.999 291.163 717.999 293.224C717.999 297.233 716.615 300.545 713.845 303.159C711.076 305.773 707.465 307.08 703.013 307.08C699.535 307.08 696.5 306.228 693.908 304.522C691.338 302.816 689.134 300.135 687.295 296.48L695.104 291.761C697.452 296.081 700.155 298.241 703.212 298.241C704.807 298.241 706.147 297.776 707.233 296.846C708.318 295.915 708.861 294.841 708.861 293.622C708.861 292.515 708.451 291.407 707.631 290.299C706.812 289.192 705.006 287.497 702.215 285.215C696.898 280.873 693.465 277.528 691.914 275.18C690.363 272.809 689.588 270.45 689.588 268.102C689.588 264.712 690.873 261.81 693.442 259.396C696.034 256.959 699.224 255.74 703.013 255.74C705.449 255.74 707.764 256.305 709.958 257.435C712.173 258.565 714.565 260.625 717.135 263.616Z" fill="white"/><path d="M649.542 264.945L642.995 271.425C638.853 267.038 634.023 264.845 628.507 264.845C623.7 264.845 619.668 266.44 616.412 269.63C613.177 272.82 611.56 276.697 611.56 281.261C611.56 285.979 613.244 289.978 616.611 293.257C619.978 296.536 624.132 298.175 629.072 298.175C632.284 298.175 634.987 297.499 637.18 296.148C639.396 294.796 641.179 292.681 642.53 289.801H628.374V281.061H652.964L653.031 283.122C653.031 287.397 651.923 291.451 649.708 295.284C647.493 299.116 644.624 302.041 641.101 304.057C637.579 306.073 633.447 307.08 628.707 307.08C623.634 307.08 619.103 305.984 615.116 303.791C611.15 301.575 608.005 298.43 605.679 294.353C603.375 290.277 602.223 285.88 602.223 281.161C602.223 274.692 604.36 269.065 608.636 264.28C613.709 258.587 620.311 255.74 628.441 255.74C632.694 255.74 636.671 256.527 640.37 258.1C643.494 259.429 646.551 261.711 649.542 264.945Z" fill="white"/><path d="M540.415 255.74C547.327 255.74 553.264 258.244 558.226 263.25C563.21 268.257 565.703 274.36 565.703 281.56C565.703 288.693 563.244 294.73 558.326 299.67C553.43 304.61 547.482 307.08 540.481 307.08C533.149 307.08 527.057 304.544 522.205 299.471C517.353 294.398 514.928 288.372 514.928 281.394C514.928 276.719 516.058 272.422 518.317 268.501C520.577 264.579 523.678 261.478 527.621 259.196C531.587 256.892 535.851 255.74 540.415 255.74ZM540.315 264.845C535.796 264.845 531.997 266.418 528.917 269.564C525.838 272.71 524.298 276.708 524.298 281.56C524.298 286.965 526.237 291.241 530.114 294.387C533.126 296.846 536.582 298.075 540.481 298.075C544.89 298.075 548.645 296.48 551.746 293.29C554.848 290.1 556.398 286.168 556.398 281.493C556.398 276.841 554.837 272.909 551.713 269.697C548.589 266.462 544.79 264.845 540.315 264.845Z" fill="white"/><path d="M457.404 256.969H466.709V296.978H480.266V305.85H457.404V256.969Z" fill="white"/><path d="M387.982 305.85V256.969H395.658C400.111 256.969 403.368 257.257 405.428 257.833C408.352 258.609 410.678 260.049 412.406 262.153C414.134 264.258 414.998 266.739 414.998 269.597C414.998 271.457 414.599 273.152 413.802 274.681C413.026 276.187 411.753 277.605 409.98 278.934C412.949 280.33 415.12 282.08 416.493 284.185C417.867 286.267 418.554 288.737 418.554 291.595C418.554 294.342 417.845 296.845 416.427 299.105C415.009 301.364 413.182 303.059 410.944 304.189C408.707 305.297 405.616 305.85 401.673 305.85H387.982ZM397.287 265.842V276.143H399.314C401.573 276.143 403.246 275.667 404.331 274.714C405.439 273.761 405.993 272.465 405.993 270.826C405.993 269.298 405.472 268.09 404.431 267.204C403.39 266.296 401.806 265.842 399.679 265.842H397.287ZM397.287 284.45V296.978H399.613C403.467 296.978 406.059 296.491 407.389 295.516C408.74 294.541 409.416 293.123 409.416 291.263C409.416 289.158 408.629 287.496 407.056 286.278C405.483 285.06 402.869 284.45 399.214 284.45H397.287Z" fill="white"/><path d="M263.322 256.969H273.324L282.429 274.515L291.468 256.969H301.337L287.048 284.683V305.85H277.677V284.683L263.322 256.969Z" fill="white"/><path d="M206.9 256.969H216.205V296.978H229.762V305.85H206.9V256.969Z" fill="white"/><path d="M157.223 256.969H166.46V305.85H157.223V256.969Z" fill="white"/><path d="M92.4506 256.969H101.888L120.696 305.85H111.026L107.205 295.782H87.2668L83.2792 305.85H73.6094L92.4506 256.969ZM97.2356 269.929L90.7226 286.71H103.715L97.2356 269.929Z" fill="white"/><path d="M0 256.969H11.0322C18.1434 256.969 23.4269 257.855 26.8828 259.628C30.3387 261.378 33.1853 264.236 35.4228 268.201C37.6603 272.166 38.779 276.796 38.779 282.091C38.779 285.857 38.1476 289.324 36.8849 292.492C35.6443 295.638 33.9164 298.252 31.7011 300.334C29.5079 302.417 27.1265 303.857 24.5567 304.654C21.9869 305.452 17.5342 305.85 11.1984 305.85H0V256.969ZM9.27107 265.941V296.745H13.5909C17.8443 296.745 20.9236 296.258 22.8288 295.283C24.7561 294.309 26.329 292.669 27.5474 290.365C28.7658 288.061 29.375 285.226 29.375 281.858C29.375 276.675 27.924 272.654 25.0219 269.796C22.4079 267.226 18.2098 265.941 12.4279 265.941H9.27107Z" fill="white"/><path d="M630.474 0C667.855 0.000263256 698.17 30.3163 698.17 67.47C698.17 79.5507 695.436 90.4927 689.737 100.294C707.06 113.059 717.773 132.661 717.773 155.454C717.773 193.064 687.229 223.836 649.392 223.836H378.285C393.243 210.37 405.496 193.959 414.128 175.514H649.392C660.561 175.514 669.678 166.623 669.678 155.454C669.678 144.286 660.561 135.168 649.392 135.168H426.459C427.665 127.481 428.293 119.602 428.293 111.576C428.293 103.233 427.615 95.0482 426.313 87.0729H630.474C641.186 87.0727 649.848 78.4109 649.848 67.47C649.848 57.2131 641.414 48.0955 630.474 48.0952H414.34C405.841 29.7766 393.778 13.4481 379.041 0H630.474Z" fill="white"/><path d="M1.13867 87.073H49.2333V175.513H272.156C307.486 175.513 335.978 147.249 335.978 111.918C335.978 76.5878 307.486 48.0955 272.156 48.0955H1.13867V0.000488281H272.156C334.154 0.000488281 384.072 49.919 384.072 111.918C384.072 173.69 334.154 223.836 272.156 223.836H1.13867V87.073Z" fill="white"/></svg>